<svg enable-background="new 0 0 1024 1024" height="1024" image-rendering="optimizeSpeed" viewBox="0 0 1024 1024" width="1024" xmlns="http://www.w3.org/2000/svg"><path d="m969.6 351.25q-8.6-20.85-19.4-40.85c-4.05-7.55-8.35-15.05-12.9-22.4-19.55-31.7-43.4-61.65-71.55-89.8-92.15-92.15-203.45-138.25-333.8-138.25s-241.6 46.1-333.75 138.25-138.25 203.4-138.25 333.75 46.1 241.65 138.25 333.8 203.4 138.2 333.75 138.2 241.65-46.05 333.8-138.2c50.75-50.8 87.55-107.4 110.35-169.75 18.55-50.85 27.85-105.5 27.85-164.05 0-44.9-5.45-87.55-16.4-127.95-1.25-4.55-2.55-9.1-3.9-13.6-4.1-13.3-8.8-26.35-14.05-39.15z" fill-opacity=".098039"/><path d="m969.7 392c-1.1-4.35-2.35-9-3.65-13.6-2.5-8.75-5.35-17.6-8.45-26.35-6.45-18.25-14.15-36.05-23.15-53.65-3.8-7.4-7.95-14.95-12.3-22.4-20.3-34.5-45.8-67.2-76.35-97.75-72.6-72.6-157.15-116.65-253.65-132.05-16.25-2.6-32.8-4.4-50.05-5.35-9.7-.55-19.85-.85-30.1-.85-9.35 0-18.6.25-27.9.75-118.35 6.1-220.3 51.95-305.85 137.5q-138.25 138.25-138.25 333.75c0 130.35 46.1 241.65 138.25 333.8 85.25 85.25 186.85 131.05 304.7 137.4.35.05.75.05 1.15.1h.4c8.5.45 16.6.7 24.5.7h3c10.3 0 20.5-.3 30.1-.8 2.5-.15 4.75-.3 6.95-.45 20.2-1.45 39.9-4.05 58.7-7.7 7.95-1.55 15.8-3.3 23.4-5.15 80.8-20.3 152.15-61.6 214.65-124.1 48.6-48.6 84.4-102.5 107.35-161.8 9.1-23.45 16.15-47.75 21.3-73.05 5.2-25.8 8.3-52.65 9.25-80.45.2-6.05.3-12.25.3-18.5 0-.65 0-1.35 0-2 0-.35 0-.65 0-1-.2-40.65-4.95-79.5-14.3-117z" fill="#5b8cc4"/><path d="m974.45 610.95-230.45-230.45-528.325 335.475 267.25 267.225h.025c.35.05.75.05 1.15.1h.4c8.5.45 16.6.7 24.5.7q1.494 0 3 0c10.3 0 20.5-.3 30.1-.8 2.5-.15 4.75-.3 6.95-.45 20.2-1.45 39.9-4.05 58.7-7.7 7.95-1.55 15.8-3.3 23.4-5.15 80.8-20.3 152.15-61.6 214.65-124.1 48.6-48.6 84.4-102.5 107.35-161.8 9.1-23.45 16.15-47.75 21.3-73.05z" fill-opacity=".2"/><path d="m739.75 376q-27.4-27.4-65.75-27.4c-23.25 0-43.35 7.5-60.3 22.5-14.05-34.25-36.65-62.05-67.75-83.4-31.15-21.1-65.7-31.65-103.7-31.65-51.45 0-95.2 18.05-131.3 54.2-36.15 36.4-54.2 80.15-54.2 131.3l.6 15.6c-28.15 13-50.7 32.75-67.75 59.25-17.2 26.4-25.8 55.55-25.8 87.5 0 44.65 15.85 82.9 47.5 114.85 31.95 31.65 70.2 47.5 114.85 47.5h394.1c38.55 0 71.45-13.65 98.65-41 27.05-27.05 40.55-59.8 40.55-98.25 0-32.6-10.15-61.55-30.4-86.85-20.3-25.15-46-41.35-77.15-48.5 10.05-15.25 15.05-31.95 15.05-50.1 0-25.55-9.05-47.4-27.2-65.55z" fill="#fff"/></svg>